<svg width="450" height="73" viewBox="0 0 450 73" fill="none" xmlns="http://www.w3.org/2000/svg">
<path d="M94.5915 72.3965C80.9369 72.3965 71.1614 63.0089 71.1614 50.0525C71.1614 37.0961 80.9369 27.7861 94.5915 27.7861C108.246 27.7861 118.099 37.0961 118.099 50.0525C118.099 63.0089 108.246 72.3965 94.5915 72.3965ZM94.5915 59.4401C99.8672 59.4401 103.669 55.6385 103.669 50.1301C103.669 44.6217 99.8672 40.7425 94.5915 40.7425C89.3935 40.7425 85.5919 44.5441 85.5919 50.1301C85.5919 55.6385 89.3935 59.4401 94.5915 59.4401ZM174.126 27.9413C183.126 27.9413 189.022 34.9238 189.022 44.7769V71H174.592V46.5613C174.592 42.139 173.04 40.0443 169.937 40.0443C165.98 40.0443 163.963 42.7597 163.963 48.0354V71H149.921V46.5613C149.921 42.2942 148.291 40.0443 145.266 40.0443C141.386 40.0443 139.214 42.8373 139.214 48.0354V71H124.784V29.105H134.947L136.964 33.6825C139.99 30.1136 144.412 27.9413 149.222 27.9413C154.343 27.9413 158.61 30.1912 161.248 34.0704C164.273 30.2688 168.928 27.9413 174.126 27.9413ZM240.806 49.6646C240.806 50.9835 240.728 52.2249 240.573 53.5438H209.462C210.393 58.3539 213.419 60.8366 217.996 60.8366C221.332 60.8366 224.203 59.3625 225.522 56.8798H239.952C237.004 66.4226 228.47 72.3965 217.996 72.3965C204.885 72.3965 195.264 62.8538 195.264 50.0525C195.264 37.2513 204.807 27.7861 217.996 27.7861C231.496 27.7861 240.806 37.4065 240.806 49.6646ZM217.996 39.1133C213.807 39.1133 210.859 41.3632 209.695 45.5527H226.608C225.367 41.3632 222.341 39.1133 217.996 39.1133ZM272.663 27.9413C282.361 27.9413 288.801 34.8462 288.801 45.4751V71H274.37V47.4923C274.37 42.6045 272.508 40.1995 268.862 40.1995C264.362 40.1995 261.802 43.3028 261.802 48.656V71H247.371V29.105H257.535L259.474 33.4497C262.577 29.9585 267.232 27.9413 272.663 27.9413ZM319.805 58.4315H325.313V71H315.383C306.15 71 300.487 65.3364 300.487 56.0264V40.277H292.806V36.8634L311.581 16.9245H314.607V29.105H325.08V40.277H314.917V53.6214C314.917 56.5695 316.779 58.4315 319.805 58.4315ZM352.17 72.3965C339.835 72.3965 331.533 64.7933 331.533 53.0783V29.105H345.964V52.4576C345.964 56.8798 348.369 59.4401 352.17 59.4401C356.049 59.4401 358.377 56.8023 358.377 52.4576V29.105H372.807V53.0783C372.807 64.7933 364.584 72.3965 352.17 72.3965ZM430.666 27.9413C439.666 27.9413 445.562 34.9238 445.562 44.7769V71H431.132V46.5613C431.132 42.139 429.58 40.0443 426.477 40.0443C422.52 40.0443 420.503 42.7597 420.503 48.0354V71H406.46V46.5613C406.46 42.2942 404.831 40.0443 401.805 40.0443C397.926 40.0443 395.754 42.8373 395.754 48.0354V71H381.323V29.105H391.487L393.504 33.6825C396.53 30.1136 400.952 27.9413 405.762 27.9413C410.883 27.9413 415.15 30.1912 417.788 34.0704C420.813 30.2688 425.468 27.9413 430.666 27.9413Z" fill="#4254D6"/>
<g filter="url(#filter0_i_76_55)">
<path d="M62.5425 71.0959V7.89954L31.2712 39.4977L62.5425 71.0959Z" fill="#4254D6"/>
</g>
<path d="M0 52.6811C0 34.8675 0 25.9607 4.89515 23.1508C5.63432 22.7265 6.42595 22.401 7.24978 22.1826C12.7056 20.736 18.9713 27.0663 31.5026 39.7268C43.8778 52.2295 50.0654 58.4808 48.5956 63.8997C48.3735 64.7187 48.0453 65.5052 47.6195 66.2392C44.8022 71.0959 36.0064 71.0959 18.4148 71.0959C10.2711 71.0959 6.19923 71.0959 3.48101 68.8144C3.04709 68.4501 2.64575 68.0488 2.28154 67.6149C0 64.8967 0 60.8248 0 52.6811Z" fill="#4A5DEF"/>
<path d="M0 7.89954L62.5518 71.0959L15.7991 71.0959L0 55.2968V7.89954Z" fill="#4A5DEF"/>
<defs>
<filter id="filter0_i_76_55" x="31.2712" y="6.31963" width="31.2712" height="64.7763" filterUnits="userSpaceOnUse" color-interpolation-filters="sRGB">
<feFlood flood-opacity="0" result="BackgroundImageFix"/>
<feBlend mode="normal" in="SourceGraphic" in2="BackgroundImageFix" result="shape"/>
<feColorMatrix in="SourceAlpha" type="matrix" values="0 0 0 0 0 0 0 0 0 0 0 0 0 0 0 0 0 0 127 0" result="hardAlpha"/>
<feOffset dy="-1.57991"/>
<feGaussianBlur stdDeviation="3.94977"/>
<feComposite in2="hardAlpha" operator="arithmetic" k2="-1" k3="1"/>
<feColorMatrix type="matrix" values="0 0 0 0 0 0 0 0 0 0 0 0 0 0 0 0 0 0 0.25 0"/>
<feBlend mode="soft-light" in2="shape" result="effect1_innerShadow_76_55"/>
</filter>
</defs>
</svg>
